<?xml version="1.0" standalone="no"?>
<!DOCTYPE svg PUBLIC "-//W3C//DTD SVG 1.1//EN" "http://www.w3.org/Graphics/SVG/1.1/DTD/svg11.dtd" >
<svg xmlns="http://www.w3.org/2000/svg">
<metadata></metadata>
<defs>
<font id="allregular" horiz-adv-x="1014" >
<font-face units-per-em="2048" ascent="1638" descent="-410" />
<missing-glyph horiz-adv-x="508" />
<glyph unicode="&#xd;" horiz-adv-x="508" />
<glyph unicode=" "  horiz-adv-x="508" />
<glyph unicode="&#x09;" horiz-adv-x="508" />
<glyph unicode="&#xa0;" horiz-adv-x="508" />
<glyph unicode="!" horiz-adv-x="1900" d="M1583 606v-547q0 -30 -22.5 -52.5t-51.5 -20.5h-438v438h-293v-438h-438q-31 0 -51.5 20.5t-22.5 52.5v555l658 541l657 -541q2 -2 2 -8zM1837 686l-70 -84q-10 -10 -24 -12h-4q-15 0 -25 6l-790 659l-791 -659q-14 -8 -27 -8q-14 4 -24 14l-72 84q-8 10 -6 26.5t12 24.5 l822 684q36 31 85.5 31t88.5 -31l278 -233v223q0 16 10.5 26.5t26.5 10.5h219q17 0 27 -10.5t10 -26.5v-465l250 -209q10 -10 12 -24.5t-8 -26.5z" />
<glyph unicode="&#x22;" horiz-adv-x="2177" d="M1587 1739q258 0 424 -164t166 -424v-123q0 -584 -1090 -1337q-1087 751 -1087 1337v123q0 260 166 424t422 164q166 0 274.5 -61.5t224.5 -202.5q119 139 227.5 202.5t272.5 61.5z" />
<glyph unicode="#" horiz-adv-x="2150" d="M2150 950q0 -30 -59 -78l-563 -409l215 -662q10 -34 10 -61q0 -49 -36 -49t-79 35l-563 407l-563 -407q-47 -35 -82 -35t-35 47q0 22 13 63l215 662l-564 409q-59 43 -59 76q0 47 100 47l697 -2l213 664q24 82 64 82t65 -82l217 -664l694 2q100 0 100 -45z" />
<glyph unicode="$" horiz-adv-x="1755" d="M512 1229q0 61 -43 104t-102.5 41t-104.5 -41t-43 -104.5t43 -102t104.5 -43t102.5 43t43 102.5zM1731 571q0 -61 -41 -104l-562 -561q-45 -43 -105 -43t-101 43l-818 817q-43 43 -73.5 116.5t-30.5 133.5v475q0 59 43 102t102 45h478q59 0 132.5 -30.5t116.5 -73.5 l818 -817q41 -43 41 -103z" />
<glyph unicode="%" horiz-adv-x="2191" d="M2191 -180q0 -43 -4 -129h-2185v63q0 43 -2 66q0 61 2 76q25 100 131.5 173.5t229 108.5t256 96.5t198.5 133.5q35 45 35 77q0 45 -23 150q-8 43 -20 75.5t-32.5 67.5t-33.5 64q-30 71 -67 270q-12 78 -12 154q0 215 110.5 344t321.5 129t323.5 -129t108.5 -344 q0 -64 -15 -154q-28 -182 -65 -270q-12 -29 -30.5 -64t-33 -67.5t-22.5 -75.5q-23 -105 -23 -150q0 -36 35 -77q64 -74 199 -133.5t256 -96.5t227.5 -108.5t130.5 -173.5q4 -17 4 -76z" />
<glyph unicode="&#x26;" horiz-adv-x="1673" d="M0 1092q0 51 37 88t90 37t86 -37l625 -621l622 621q37 37 88 37t88 -37t37 -88.5t-37 -87.5l-798 -801l-801 801q-37 38 -37 88z" />
<glyph unicode="'" horiz-adv-x="1013" d="M0 723l801 801q37 37 87 37t88 -37t38 -90.5t-37 -87.5l-623 -623l623 -625q37 -35 37 -88t-37 -89t-88 -36t-88 37z" />
<glyph unicode="(" horiz-adv-x="1013" d="M0 0q0 51 37 88l625 623l-625 622q-37 37 -37 90.5t37 88t90 36.5t88 -37l799 -800l-799 -801q-39 -37 -88 -37t-88 37t-39 90z" />
<glyph unicode=")" horiz-adv-x="1671" d="M0 342q0 53 37 88l801 801l798 -801q35 -35 35 -88t-36 -89t-89 -36t-88 35l-620 625l-625 -625q-37 -35 -88 -35t-88 36t-37 89z" />
<glyph unicode="*" horiz-adv-x="2048" d="M2048 715q0 -279 -137 -514.5t-372.5 -372.5t-514.5 -137t-514.5 137t-372.5 372.5t-137 514t137 514t372.5 373t514.5 137.5t514.5 -137.5t372.5 -373t137 -513.5zM1120 240l146 145l-330 330l330 329l-146 146l-477 -475z" />
<glyph unicode="+" horiz-adv-x="2048" d="M2048 715q0 -279 -137 -514.5t-372.5 -372.5t-514.5 -137t-514.5 137t-372.5 372.5t-137 514t137 514t372.5 373t514.5 137.5t514.5 -137.5t372.5 -373t137 -513.5zM928 240l477 475l-477 475l-146 -146l330 -329l-330 -330z" />
<glyph unicode="," horiz-adv-x="2048" d="M2048 715q0 -279 -137 -514.5t-372.5 -372.5t-514.5 -137t-514.5 137t-372.5 372.5t-137 514t137 514t372.5 373t514.5 137.5t514.5 -137.5t372.5 -373t137 -513.5zM1058 334l551 553l-169 169l-382 -382l-383 382l-168 -169z" />
<glyph unicode="-" horiz-adv-x="2048" d="M2048 715q0 -279 -137 -514.5t-372.5 -372.5t-514.5 -137t-514.5 137t-372.5 372.5t-137 514t137 514t372.5 373t514.5 137.5t514.5 -137.5t372.5 -373t137 -513.5zM1354 473l145 145l-475 478l-475 -478l145 -145l330 330z" />
<glyph unicode="." horiz-adv-x="1900" d="M920 1632q376 0 644.5 -268t268.5 -647t-268.5 -645.5t-645 -270.5t-647 270.5t-268.5 645t268.5 647t647.5 268.5zM1376 604v230h-342v342h-229v-342h-344v-230h344v-344h229v344h342z" />
<glyph unicode="/" horiz-adv-x="1900" d="M920 1632q376 0 644.5 -268t268.5 -647t-268.5 -645.5t-645 -270.5t-647 270.5t-268.5 645t268.5 647t647.5 268.5zM1376 604v230h-915v-230h915z" />
<glyph unicode="0" horiz-adv-x="2048" d="M0 557v320l307 32q29 92 78 181l-197 239l224 223l239 -194q84 47 180 76l33 307h320l33 -307q92 -29 180 -76l239 194l224 -223l-197 -239q49 -89 78 -181l307 -32v-320l-307 -33q-29 -96 -78 -180l197 -240l-224 -223l-239 197q-88 -49 -180 -78l-33 -307h-320l-33 307 q-96 29 -180 78l-239 -197l-224 223l197 240q-49 84 -78 180zM727 717q0 -123 86 -209t211 -86t211 86t86 209t-86 211t-211 86t-211 -86t-86 -211z" />
<glyph unicode="1" horiz-adv-x="1900" d="M920 1632q376 0 644.5 -268t268.5 -647t-268.5 -645.5t-645 -270.5t-647 270.5t-268.5 645t268.5 647t647.5 268.5zM776 295l713 713l-162 161l-551 -548l-258 258l-162 -160z" />
<glyph unicode="2" horiz-adv-x="1900" d="M920 1632q376 0 644.5 -268t268.5 -647t-268.5 -645.5t-645 -270.5t-647 270.5t-268.5 645t268.5 647t647.5 268.5zM1370 428l-289 291l289 289l-162 161l-291 -288l-288 288l-162 -161l289 -289l-289 -291l162 -162l288 289l291 -289z" />
<glyph unicode="3" horiz-adv-x="1665" d="M961 160v714h-248v-714h248zM836 999q63 2 103 43t40 103.5t-40 102.5t-103.5 40t-104.5 -40t-41 -102.5t41 -103.5t105 -43zM831 1550q353 -8 589.5 -243.5t244.5 -589.5q-8 -352 -244.5 -587.5t-589.5 -244.5q-354 9 -588.5 244.5t-242.5 587.5q8 354 242.5 589.5 t588.5 243.5z" />
<glyph unicode="4" horiz-adv-x="1875" d="M1853 158q25 -45 23 -92q-2 -82 -54.5 -133.5t-129.5 -53.5h-1506q-75 2 -129.5 54.5t-56.5 132.5q0 47 27 92l753 1304q25 43 66 67.5t92 24.5t93 -24.5t67 -67.5zM805 1124v-612h272v612h-272zM942 369q-65 -2 -108 -44t-46 -112q3 -66 46 -108t108.5 -42t108.5 42 t43 109t-42 110t-110 45z" />
<glyph unicode="5" horiz-adv-x="1665" d="M829 1266q-161 0 -244 -86t-83 -248h266q0 119 58.5 119t56.5 -119q0 -74 -36 -104.5t-108 -30.5q-10 0 -41 2v-250h267v104q198 52 198 279q-2 151 -94 241.5t-240 92.5zM831 436q-65 -2 -109 -47t-46 -113q2 -65 46 -110t109.5 -45t110.5 45t45 110.5t-45 111.5 t-111 48zM831 1550q353 -8 589.5 -243.5t244.5 -589.5q-8 -352 -244.5 -587.5t-589.5 -244.5q-354 9 -588.5 244.5t-242.5 587.5q8 354 242.5 589.5t588.5 243.5z" />
<glyph unicode="7" horiz-adv-x="2048" d="M1721 1253q62 0 102 -20.5t63.5 -51t32.5 -66.5t9 -66q0 -15 -1 -23t-1 -14v-13h-135v-1075q0 -41 -16.5 -79t-47 -66.5t-74.5 -46t-102 -17.5h-913q-53 0 -100 16.5t-81 46t-53.5 71.5t-19.5 96v1054h-127q-2 2 -2 11q-2 10 -2 63q0 27 12.5 59.5t37 60.5t63.5 46t92 18 h182v125q0 54 37 91.5t90 37.5h641q72 0 99.5 -37.5t27.5 -91.5v-127q43 -2 92 -2h94zM767 1253h641v129h-641v-129zM704 -43q65 0 65 84v950h-127v-950q0 -43 13.5 -63.5t48.5 -20.5zM1091 -41q34 0 46.5 19.5t12.5 62.5v950h-127v-950q0 -82 68 -82zM1476 -37 q37 0 49 19.5t12 62.5v946h-129v-946q0 -82 68 -82z" />
<glyph unicode="8" horiz-adv-x="731" d="M657 717q0 -29 -20 -51l-512 -512q-23 -23 -51.5 -23t-51 22.5t-22.5 51.5v1024q0 31 22.5 51t51 22.5t51.5 -22.5l512 -512q20 -20 20 -51z" />
<glyph unicode="9" horiz-adv-x="731" d="M657 1229v-1024q0 -29 -20.5 -51.5t-53 -22.5t-51.5 23l-512 512q-20 22 -20 50.5t20 51.5l512 512q23 23 51.5 23t53.5 -23t20 -51z" />
<glyph unicode=":" horiz-adv-x="1169" d="M1173 350q0 -28 -20.5 -51t-50.5 -20h-1024q-31 0 -51.5 20t-22.5 51t23 53l512 512q20 21 50.5 21t51.5 -21l512 -512q20 -22 20 -53z" />
<glyph unicode=";" horiz-adv-x="1169" d="M1169 936q0 -29 -20 -51l-512 -512q-23 -23 -51.5 -23t-50.5 23l-512 512q-23 22 -23 51t22.5 51.5t51.5 22.5h1024q28 0 50.5 -22.5t20.5 -51.5z" />
<glyph unicode="&#x3c;" horiz-adv-x="1925" d="M836 1556q344 0 587.5 -237.5t251.5 -577.5h250l-377 -422l-377 422h295q-8 254 -192 430.5t-440 176.5t-440.5 -184.5t-184.5 -444.5t184.5 -444.5t442.5 -184.5q213 0 372 123l144 -156q-226 -180 -516 -180q-344 0 -590 246t-246 594t246 593.5t590 245.5z" />
<glyph unicode="=" horiz-adv-x="1925" d="M1090 1507q348 0 591.5 -245.5t243.5 -594t-243.5 -594t-591.5 -245.5q-291 0 -517 180l144 152q172 -123 373 -123q258 0 442 184.5t184 446.5t-184 446t-440 184t-440.5 -178t-188.5 -432h291l-377 -418l-377 418h254q4 340 250 579.5t586 239.5z" />
<glyph unicode="&#x3e;" horiz-adv-x="1679" d="M389 287l238 237v-598l-566 33l181 176q-238 250 -234 594t246 590q205 205 491 237l9 -208q-205 -33 -353 -181q-180 -180 -184 -436t172 -444zM1069 1511l565 -32l-180 -176q238 -250 233.5 -594t-245.5 -590q-197 -201 -492 -242l-4 213q201 33 348 180 q180 181 184.5 437t-171.5 444l-234 -238z" />
<glyph unicode="?" horiz-adv-x="2048" d="M1907 23v876q-37 -41 -80 -76q-305 -233 -488 -385q-57 -49 -94 -77.5t-98.5 -55t-116.5 -26.5h-4q-53 0 -116.5 26.5t-98.5 54.5l-94 78q-180 152 -488 385q-43 35 -80 76v-876q0 -17 12.5 -27t24.5 -10h1684q14 0 24.5 10t12.5 27zM1907 1223v28l-4 29l-7 10 q-6 10 -10 8t-16 5h-1684q-14 0 -24 -12.5t-13 -24.5q0 -193 168 -326l459 -362q8 -5 41 -33.5t51.5 -43t51 -37t57 -30.5t49.5 -10h4q23 0 49.5 10t57 30.5t51 37t51.5 43t41 33.5l459 362q61 49 114.5 133t53.5 150zM2052 1266v-1243q0 -76 -53 -129.5t-129 -55.5h-1684 q-73 0 -128.5 55.5t-53.5 129.5v1243q0 75 53.5 128.5t128.5 53.5h1684q76 0 129 -53.5t53 -128.5z" />
<glyph unicode="@" horiz-adv-x="2048" d="M2052 930v-907q0 -76 -53 -129.5t-129 -55.5h-1684q-73 0 -128.5 55.5t-53.5 129.5v907q51 -58 115 -101q413 -280 569 -393q66 -49 104.5 -75.5t108.5 -55.5t125 -26h4q57 0 125 26.5t109 55t104 75.5q195 139 569 393q66 45 115 101zM2052 1266q0 -90 -55.5 -172 t-139.5 -142q-430 -299 -536 -370l-109 -80q-24 -19 -59 -37.5t-67.5 -30.5t-55.5 -10h-4q-25 0 -55.5 10t-67.5 30.5t-59 37.5l-109 80l-301 206q-196 136 -233 164q-72 47 -133.5 131t-63.5 158q0 88 47 147.5t135 59.5h1684q74 0 127 -53.5t55 -128.5z" />
<glyph unicode="A" horiz-adv-x="1755" d="M1767 717q0 -240 -116.5 -440.5t-319.5 -319.5t-440.5 -119t-442 119t-317.5 319.5t-119 440t119 440.5t317.5 319.5t442.5 118.5t440.5 -118.5t319.5 -319.5t116 -440z" />
<glyph unicode="B" horiz-adv-x="1900" d="M1462 205q0 31 -20.5 51t-51 22.5t-53 -22.5t-20.5 -51.5t20.5 -51t53 -22.5t51 22.5t20.5 51.5zM1755 205q0 31 -20.5 51t-53 22.5t-51 -22.5t-20.5 -51.5t20.5 -51t51 -22.5t53 22.5t20.5 51.5zM1903 461v-367q0 -45 -33 -75.5t-78 -32.5h-1681q-48 0 -78.5 32.5 t-32.5 75.5v367q0 45 33 77.5t78 32.5h530l154 -155q67 -66 155 -66t156 66l156 155h530q45 0 78 -32.5t33 -77.5zM1530 1112q20 -47 -17 -82l-512 -512q-20 -20 -50.5 -20t-51.5 20l-512 512q-35 35 -16 82q20 43 67 43h293v512q0 31 22.5 51.5t51.5 22.5h293 q28 0 50.5 -22.5t20.5 -51.5v-512h293q49 0 68 -43z" />
<glyph unicode="C" horiz-adv-x="1900" d="M1462 59q0 29 -20.5 51.5t-51 20.5t-53 -20.5t-20.5 -51t20.5 -53t53 -20.5t51 20.5t20.5 52.5zM1755 59q0 29 -20.5 51.5t-53 20.5t-51 -20.5t-20.5 -51t20.5 -53t51 -20.5t53 20.5t20.5 52.5zM1903 315v-366q0 -45 -33 -78t-78 -33h-1681q-48 0 -78.5 33t-32.5 78v366 q0 45 33 78t78 31h487q25 -64 80 -104.5t127 -40.5h293q69 0 124.5 40.5t82.5 104.5h487q45 0 78 -31t33 -78zM1530 1055q-19 -45 -68 -45h-293v-512q0 -31 -20.5 -51.5t-50.5 -22.5h-293q-31 0 -51.5 22.5t-22.5 51.5v512h-293q-47 0 -66.5 45t15.5 80l512 512 q21 20 51.5 20t50.5 -20l512 -512q37 -35 17 -80z" />
<glyph unicode="D" horiz-adv-x="2048" d="M1528 428l520 -522l-215 -215l-520 520q-217 -148 -475 -148q-346 0 -592 246t-246 592t246 592t592 246t591.5 -246t245.5 -592q0 -260 -147 -473zM1395 901q0 232 -162 395.5t-395.5 163.5t-395 -163.5t-164 -395t163.5 -393.5t395.5 -164t395.5 164t162 393z" />
<glyph unicode="E" horiz-adv-x="2048" d="M1987 932q77 -107 116 -227.5t54.5 -236.5t14.5 -216t-1 -164q0 -12 -2 -29.5t-7 -35t-12.5 -29.5t-19.5 -12h-84q0 69 -21.5 118.5t-57.5 80t-84 45t-101 14.5t-98.5 -20.5t-79 -55.5t-53 -81t-19.5 -97h-37q-37 0 -63.5 26.5t-26.5 63.5v2v985q0 22 15.5 52t37.5 32 q68 6 141.5 -5.5t145.5 -38t135.5 -69.5t106.5 -102zM1954 492q24 0 42.5 1t18.5 25q0 4 -1 6t-1 6q-22 101 -49 194t-90 159q-41 39 -88 56t-89 22.5t-71 3.5t-31 -2q-26 0 -44.5 -19.5t-18.5 -42.5v-186q0 -82 2 -183v-2q0 -10 14.5 -24t28.5 -14h377zM1274 1397l4 -1334 q0 -34 -23.5 -56.5t-56.5 -22.5h-559q0 120 -61.5 190t-192.5 70q-125 0 -191.5 -64.5t-66.5 -195.5h-47q-35 0 -57.5 20.5t-22.5 58.5v1065q0 50 18.5 97t52 86t79 62.5t98.5 23.5h1026zM1792 111q53 0 92 -39t39 -92q0 -56 -39 -95t-92 -39q-55 0 -93 39t-38 95 q0 53 38 92t93 39zM383 113q55 0 93 -39t38 -94q0 -54 -38 -93t-93 -39t-93 39t-38 93q0 55 38 94t93 39z" />
<glyph unicode="F" horiz-adv-x="2048" d="M1853 -20q57 -66 62 -115t-38 -96q-49 -56 -108.5 -53t-114.5 48l-330 318q-92 -62 -199.5 -95.5t-226.5 -33.5q-162 0 -303 61.5t-246.5 167t-166 246.5t-60.5 303q0 160 60.5 301.5t166 246.5t246.5 166.5t303 61.5t303.5 -61.5t247 -166.5t166.5 -246.5t61 -301.5 q0 -123 -35.5 -233.5t-99.5 -202.5q27 -29 75 -77t96 -97t89 -88zM898.5 227q106.5 0 200.5 40t163.5 109.5t109.5 164t40 201t-40 200.5t-109.5 164t-163.5 109.5t-200.5 39.5t-200 -39.5t-163 -109.5t-110.5 -164t-41 -200.5t41 -201t110.5 -164t163 -109.5t200 -40z M1023 870h256v-256h-256v-256h-258v256h-254v256h254v256h258v-256z" />
<glyph unicode="G" horiz-adv-x="2048" d="M1855 -20q57 -66 62 -115t-38 -96q-49 -56 -108.5 -53t-114.5 48l-330 316q-92 -60 -199.5 -93.5t-226.5 -33.5q-162 0 -303 61.5t-246.5 167t-166 246.5t-60.5 303q0 160 60.5 301.5t166 246.5t246.5 166.5t303 61.5t303.5 -61.5t247 -166.5t166.5 -246.5t61 -301.5 q0 -123 -35.5 -233.5t-99.5 -204.5l74 -76q49 -47 97 -96t87 -88zM900.5 227q106.5 0 200.5 40t163.5 109.5t109.5 164t40 201t-40 200.5t-109.5 164t-163.5 109.5t-200.5 39.5t-200 -39.5t-163 -109.5t-110.5 -164t-41 -200.5t41 -201t110.5 -164t163 -109.5t200 -40z M511 870h770v-256h-770v256z" />
<glyph unicode="H" horiz-adv-x="2048" d="M80 352q-66 70 -74 127.5t49 116.5q9 8 27 24.5t38.5 34t39 34t26.5 24.5q54 47 105 39.5t88 -47.5q20 -23 54 -57t69 -70.5t67.5 -69.5t51.5 -53q41 -41 95 -32t101 56q45 45 109.5 112.5t140.5 146.5t158 165t159.5 167t147.5 152.5t123 125.5q29 28 58.5 52.5t60 38 t62.5 11.5t65 -23q4 -4 23.5 -21t41.5 -38l41 -41l23 -24q28 -29 30 -61t-10 -63.5t-33.5 -60t-42.5 -49.5q-63 -63 -157.5 -158.5t-201 -205t-221 -226.5t-220 -225.5t-196.5 -201.5t-153 -152q-24 -25 -62 -38.5t-79 -14.5t-81 9.5t-66 34.5q-56 50 -118.5 111 t-123.5 124.5t-116.5 122t-98.5 103.5z" />
<glyph unicode="I" horiz-adv-x="2048" d="M1777 145q59 -61 87 -112t-9 -117q-9 -12 -23 -29.5t-29.5 -34t-31 -29.5t-25.5 -20q-51 -30 -120.5 -16t-125.5 70l-86 86l-114 114l-136 136l-147 147l-262 -262q-121 -121 -197 -199q-78 -78 -154.5 -96.5t-136.5 35.5l-14 14l-22 23l-23 22q-12 12 -14 17 q-23 28 -27 58t5 58.5t27.5 55t41.5 49.5q18 16 65 61l111 115q68 65 150.5 147t173.5 172q-99 99 -188 187t-159.5 157.5t-115.5 113.5t-56 54q-53 54 -54 106t36 105q16 21 47 48.5t43 35.5q62 41 111 36t98 -56l63 -64q48 -47 117.5 -114.5t156.5 -152.5t181 -177 q78 78 152.5 151.5t139 138t117 116t87.5 85.5q49 47 106.5 62.5t110.5 -25.5q2 -2 13 -10t22.5 -18.5t21.5 -19.5t14 -11q56 -53 55 -115.5t-55 -116.5q-36 -36 -90.5 -91.5t-121 -121t-140.5 -139.5l-155 -156q75 -73 148 -144t135.5 -132t112.5 -112.5t83 -84.5z" />
<glyph unicode="J" horiz-adv-x="2048" d="M1023 1511q187 0 352.5 -70.5t288.5 -192.5t194.5 -285.5t71.5 -350t-71.5 -350.5t-194.5 -285.5t-288.5 -192.5t-352.5 -71q-188 0 -353 71t-288 192.5t-193.5 285.5t-70.5 350.5t70.5 350t193.5 285.5t288 192.5t353 70.5zM1410 492q54 0 90.5 36.5t36.5 90t-36.5 91.5 t-90.5 38h-256v382q0 54 -37.5 92t-91 38t-90.5 -38t-37 -92v-512q0 -53 37 -89.5t90 -36.5h385z" />
<glyph unicode="K" horiz-adv-x="2048" d="M1472 365q67 0 125.5 -26t101.5 -70t68.5 -102t25.5 -126t-25.5 -126t-68.5 -101t-101.5 -69t-126 -26t-126 26t-102.5 69t-69.5 101t-25.5 126q0 20 2 37.5t6 36.5l-323 272q-29 -14 -62 -20.5t-67 -6.5q-68 0 -126.5 26t-102.5 69t-69.5 101t-25.5 126t25.5 126 t69.5 102t102.5 70t126.5 26q75 0 145 -35l307 286q-8 27 -8 66q0 68 25.5 126t69.5 101t102.5 69t126 26t126 -26t101.5 -69t68.5 -101t25.5 -126t-25.5 -126t-68.5 -102t-101.5 -70t-125.5 -26q-48 0 -89.5 12.5t-76.5 35.5l-293 -273q12 -47 12 -92q0 -57 -18 -107 l301 -253q37 20 78 31.5t86 11.5z" />
<glyph unicode="L" horiz-adv-x="1128" d="M535 1217l377 1v-246h-300zM1679 972h-238v248h295zM1441 639v218l214 1l-40 -188zM1004 972v247h346v-247h-346zM1350 854v-231l-346 -62v295zM649 856h263v-311l-155 -27zM1802 486l155 928h-1485l-54 171h-421v-181l183 1l375 -1078q-32 9 -58 9q-91 0 -155 -64 t-64 -155q0 -90 64 -154t155 -64t155 64t64 154q0 71 -42 128q-40 55 -105 78zM1600 272q-64 -64 -64 -155q0 -90 64 -154t155 -64q90 0 154 64t64 154q0 91 -64 155t-154 64q-91 0 -155 -64z" />
<glyph unicode="M" horiz-adv-x="1798" />
<glyph unicode="N" horiz-adv-x="1554" />
<glyph unicode="O" horiz-adv-x="1614" />
<glyph unicode="P" horiz-adv-x="1120" />
<glyph unicode="Q" horiz-adv-x="1614" />
<glyph unicode="R" horiz-adv-x="1283" />
<glyph unicode="S" horiz-adv-x="1085" />
<glyph unicode="T" horiz-adv-x="1350" />
<glyph unicode="U" horiz-adv-x="1501" />
<glyph unicode="V" horiz-adv-x="1456" />
<glyph unicode="W" horiz-adv-x="2030" />
<glyph unicode="X" horiz-adv-x="1350" />
<glyph unicode="Y" horiz-adv-x="1233" />
<glyph unicode="Z" horiz-adv-x="1124" />
<glyph unicode="[" horiz-adv-x="758" />
<glyph unicode="\" horiz-adv-x="569" />
<glyph unicode="]" horiz-adv-x="758" />
<glyph unicode="^" />
<glyph unicode="_" horiz-adv-x="1024" />
<glyph unicode="`" horiz-adv-x="1024" />
<glyph unicode="a" horiz-adv-x="922" />
<glyph unicode="b" horiz-adv-x="995" />
<glyph unicode="c" horiz-adv-x="905" />
<glyph unicode="d" horiz-adv-x="1040" />
<glyph unicode="e" horiz-adv-x="909" />
<glyph unicode="f" horiz-adv-x="559" />
<glyph unicode="g" horiz-adv-x="899" />
<glyph unicode="h" horiz-adv-x="1104" />
<glyph unicode="i" horiz-adv-x="514" />
<glyph unicode="j" horiz-adv-x="510" />
<glyph unicode="k" horiz-adv-x="1026" />
<glyph unicode="l" horiz-adv-x="522" />
<glyph unicode="m" horiz-adv-x="1569" />
<glyph unicode="n" horiz-adv-x="1108" />
<glyph unicode="o" horiz-adv-x="1010" />
<glyph unicode="p" horiz-adv-x="1010" />
<glyph unicode="q" horiz-adv-x="1024" />
<glyph unicode="r" horiz-adv-x="692" />
<glyph unicode="s" horiz-adv-x="702" />
<glyph unicode="t" horiz-adv-x="674" />
<glyph unicode="u" horiz-adv-x="1059" />
<glyph unicode="v" horiz-adv-x="993" />
<glyph unicode="w" horiz-adv-x="1415" />
<glyph unicode="x" horiz-adv-x="1010" />
<glyph unicode="y" horiz-adv-x="868" />
<glyph unicode="z" horiz-adv-x="727" />
<glyph unicode="{" />
<glyph unicode="|" />
<glyph unicode="}" />
<glyph unicode="~" />
<glyph unicode="&#xa1;" horiz-adv-x="672" />
<glyph unicode="&#xa2;" horiz-adv-x="1139" />
<glyph unicode="&#xa3;" />
<glyph unicode="&#xa4;" />
<glyph unicode="&#xa5;" horiz-adv-x="1262" />
<glyph unicode="&#xa6;" />
<glyph unicode="&#xa7;" />
<glyph unicode="&#xa8;" horiz-adv-x="1024" />
<glyph unicode="&#xa9;" horiz-adv-x="1674" />
<glyph unicode="&#xaa;" horiz-adv-x="648" />
<glyph unicode="&#xab;" horiz-adv-x="944" />
<glyph unicode="&#xac;" />
<glyph unicode="&#xae;" horiz-adv-x="1674" />
<glyph unicode="&#xaf;" horiz-adv-x="670" />
<glyph unicode="&#xb0;" horiz-adv-x="674" />
<glyph unicode="&#xb1;" />
<glyph unicode="&#xb2;" />
<glyph unicode="&#xb3;" />
<glyph unicode="&#xb4;" horiz-adv-x="1024" />
<glyph unicode="&#xb5;" horiz-adv-x="1180" />
<glyph unicode="&#xb6;" horiz-adv-x="1024" />
<glyph unicode="&#xb7;" horiz-adv-x="508" />
<glyph unicode="&#xb8;" horiz-adv-x="1024" />
<glyph unicode="&#xb9;" />
<glyph unicode="&#xba;" horiz-adv-x="718" />
<glyph unicode="&#xbb;" horiz-adv-x="944" />
<glyph unicode="&#xbc;" horiz-adv-x="1708" />
<glyph unicode="&#xbd;" horiz-adv-x="1964" />
<glyph unicode="&#xbe;" horiz-adv-x="1708" />
<glyph unicode="&#xbf;" horiz-adv-x="748" />
<glyph unicode="&#xc0;" horiz-adv-x="1540" />
<glyph unicode="&#xc1;" horiz-adv-x="1540" />
<glyph unicode="&#xc2;" horiz-adv-x="1540" />
<glyph unicode="&#xc3;" horiz-adv-x="1540" />
<glyph unicode="&#xc4;" horiz-adv-x="1540" />
<glyph unicode="&#xc5;" horiz-adv-x="1540" />
<glyph unicode="&#xc6;" horiz-adv-x="2118" />
<glyph unicode="&#xc7;" horiz-adv-x="1399" />
<glyph unicode="&#xc8;" horiz-adv-x="1151" />
<glyph unicode="&#xc9;" horiz-adv-x="1151" />
<glyph unicode="&#xca;" horiz-adv-x="1151" />
<glyph unicode="&#xcb;" horiz-adv-x="1151" />
<glyph unicode="&#xcc;" horiz-adv-x="657" />
<glyph unicode="&#xcd;" horiz-adv-x="657" />
<glyph unicode="&#xce;" horiz-adv-x="657" />
<glyph unicode="&#xcf;" horiz-adv-x="657" />
<glyph unicode="&#xd0;" horiz-adv-x="1518" />
<glyph unicode="&#xd1;" horiz-adv-x="1554" />
<glyph unicode="&#xd2;" horiz-adv-x="1614" />
<glyph unicode="&#xd3;" horiz-adv-x="1614" />
<glyph unicode="&#xd4;" horiz-adv-x="1614" />
<glyph unicode="&#xd5;" horiz-adv-x="1614" />
<glyph unicode="&#xd6;" horiz-adv-x="1614" />
<glyph unicode="&#xd7;" />
<glyph unicode="&#xd8;" horiz-adv-x="1614" />
<glyph unicode="&#xd9;" horiz-adv-x="1501" />
<glyph unicode="&#xda;" horiz-adv-x="1501" />
<glyph unicode="&#xdb;" horiz-adv-x="1501" />
<glyph unicode="&#xdc;" horiz-adv-x="1501" />
<glyph unicode="&#xdd;" horiz-adv-x="1233" />
<glyph unicode="&#xde;" horiz-adv-x="1120" />
<glyph unicode="&#xdf;" horiz-adv-x="1251" />
<glyph unicode="&#xe0;" horiz-adv-x="922" />
<glyph unicode="&#xe1;" horiz-adv-x="922" />
<glyph unicode="&#xe2;" horiz-adv-x="922" />
<glyph unicode="&#xe3;" horiz-adv-x="922" />
<glyph unicode="&#xe4;" horiz-adv-x="922" />
<glyph unicode="&#xe5;" horiz-adv-x="922" />
<glyph unicode="&#xe6;" horiz-adv-x="1454" />
<glyph unicode="&#xe7;" horiz-adv-x="905" />
<glyph unicode="&#xe8;" horiz-adv-x="909" />
<glyph unicode="&#xe9;" horiz-adv-x="909" />
<glyph unicode="&#xea;" horiz-adv-x="909" />
<glyph unicode="&#xeb;" horiz-adv-x="909" />
<glyph unicode="&#xec;" horiz-adv-x="514" />
<glyph unicode="&#xed;" horiz-adv-x="514" />
<glyph unicode="&#xee;" horiz-adv-x="514" />
<glyph unicode="&#xef;" horiz-adv-x="514" />
<glyph unicode="&#xf0;" horiz-adv-x="1139" />
<glyph unicode="&#xf1;" horiz-adv-x="1108" />
<glyph unicode="&#xf2;" horiz-adv-x="1010" />
<glyph unicode="&#xf3;" horiz-adv-x="1010" />
<glyph unicode="&#xf4;" horiz-adv-x="1010" />
<glyph unicode="&#xf5;" horiz-adv-x="1010" />
<glyph unicode="&#xf6;" horiz-adv-x="1010" />
<glyph unicode="&#xf7;" />
<glyph unicode="&#xf8;" horiz-adv-x="1010" />
<glyph unicode="&#xf9;" horiz-adv-x="1059" />
<glyph unicode="&#xfa;" horiz-adv-x="1059" />
<glyph unicode="&#xfb;" horiz-adv-x="1059" />
<glyph unicode="&#xfc;" horiz-adv-x="1059" />
<glyph unicode="&#xfd;" horiz-adv-x="868" />
<glyph unicode="&#xfe;" horiz-adv-x="1010" />
<glyph unicode="&#xff;" horiz-adv-x="868" />
<glyph unicode="&#x131;" horiz-adv-x="514" />
<glyph unicode="&#x2c6;" horiz-adv-x="1024" />
<glyph unicode="&#x2c7;" horiz-adv-x="1024" />
<glyph unicode="&#x2c9;" horiz-adv-x="1024" />
<glyph unicode="&#x2d8;" horiz-adv-x="1024" />
<glyph unicode="&#x2d9;" horiz-adv-x="1024" />
<glyph unicode="&#x2da;" horiz-adv-x="1024" />
<glyph unicode="&#x2db;" horiz-adv-x="1024" />
<glyph unicode="&#x2dc;" horiz-adv-x="1024" />
<glyph unicode="&#x2dd;" horiz-adv-x="1024" />
<glyph unicode="&#x2013;" horiz-adv-x="1108" />
<glyph unicode="&#x2014;" horiz-adv-x="2048" />
<glyph unicode="&#x2018;" horiz-adv-x="557" />
<glyph unicode="&#x2019;" horiz-adv-x="557" />
<glyph unicode="&#x201a;" horiz-adv-x="557" />
<glyph unicode="&#x201c;" horiz-adv-x="910" />
<glyph unicode="&#x201d;" horiz-adv-x="910" />
<glyph unicode="&#x201e;" horiz-adv-x="910" />
<glyph unicode="&#x2020;" />
<glyph unicode="&#x2021;" />
<glyph unicode="&#x2022;" horiz-adv-x="1024" />
<glyph unicode="&#x2026;" horiz-adv-x="2048" />
<glyph unicode="&#x2039;" horiz-adv-x="631" />
<glyph unicode="&#x203a;" horiz-adv-x="631" />
<glyph unicode="&#x2044;" horiz-adv-x="342" />
<glyph unicode="&#x20a3;" />
<glyph unicode="&#x20a4;" />
<glyph unicode="&#x20a7;" horiz-adv-x="2028" />
<glyph unicode="&#x20ac;" />
<glyph unicode="&#x2116;" horiz-adv-x="2271" />
<glyph unicode="&#x2122;" horiz-adv-x="1497" />
<glyph unicode="&#x2202;" />
<glyph unicode="&#x2206;" horiz-adv-x="1081" />
<glyph unicode="&#x220f;" horiz-adv-x="1515" />
<glyph unicode="&#x2211;" horiz-adv-x="1206" />
<glyph unicode="&#x2212;" />
<glyph unicode="&#x221a;" />
<glyph unicode="&#x221e;" />
<glyph unicode="&#x222b;" horiz-adv-x="665" />
<glyph unicode="&#x2248;" />
<glyph unicode="&#x2264;" />
<glyph unicode="&#x2265;" />
<glyph unicode="&#xe000;" horiz-adv-x="500" d="M0 0v0v0v0v0z" />
<glyph unicode="&#xf001;" horiz-adv-x="1073" />
<glyph unicode="&#xf002;" horiz-adv-x="1081" />
</font>
</defs>
</svg>
